<?xml version="1.0" encoding="UTF-8"?>
<svg id="a" data-name="Capa 1" xmlns="http://www.w3.org/2000/svg" viewBox="0 0 618.96 393.13">
  <defs>
    <style>
      .b {
        fill: #333;
      }
    </style>
  </defs>
  <path class="b" d="M414.14,185.79c1.26-4.27,2.38-7.77,3.32-11.31,2.37-8.9-.48-17.47-1.94-26.08-1.37-8.12-3.2-16.17-4.93-24.23-.33-1.54-.5-2.85,.36-4.31,10.99-18.62,25.14-33.85,44.92-43.5,9.67-4.71,18.67-4.71,28.34,.06,23.31,11.5,38.75,30.2,49.78,53.07,10.47,21.72,15.99,44.96,20.54,68.47,.73,3.78,1.14,7.63,2.11,11.34,1.94,7.46,.56,14.42-2.47,21.25-4.61,10.39-11.32,19.43-18.52,28.21,1.07,1.62,2.89,1.49,4.35,1.94,13.12,4.05,26.11,8.4,38.85,13.6,14.96,6.11,23.73,17.92,30.16,31.77,2.71,5.82,2.34,12.65,3.13,19.04,2.26,18.42,3.99,36.9,6.67,55.27,1.09,7.44-3.46,12.63-11.02,12.64-38.93,.06-77.86,.03-116.78,.02-.41,0-.81-.09-1.77-.21,6.24-8.3,3.28-17.23,2.19-25.96-3.05-24.41-6.3-48.8-9.46-73.2-.22-1.73-.6-3.28,1.46-4.6,19.55-12.48,33.68-30.12,46.31-49.15,4.03-6.07,7.57-12.42,10.8-18.96,1.79-3.62,1.77-7.02,.48-10.71-3.61-10.36-9.96-18.94-17.39-26.76-12.39-13.04-26.44-23.96-42.09-32.87-7.97-4.54-15.43-4.39-23.36,.15-16.25,9.29-30.66,20.82-44.04,35.01Z"/>
  <path class="b" d="M83.3,259.17c-.94-1.2-1.69-2.14-2.41-3.1-2.94-3.97-5.99-7.88-8.79-11.95-8.62-12.57-12.85-25.53-9.11-41.47,5.74-24.5,10.45-49.2,21.22-72.15,9.91-21.1,23.95-38.57,44.11-50.99,13.74-8.46,26.73-8.69,40.51-.17,16.57,10.23,29.26,23.91,38.97,40.6,.87,1.49,.59,2.8,.29,4.32-2.29,11.31-4.38,22.66-6.76,33.95-1.73,8.22-.86,16.1,2.11,23.87,.37,.96,1.2,1.89,.74,3.34-9.83-10.6-20.67-19.79-32.54-27.78-4.67-3.15-9.48-6.06-14.56-8.52-5.44-2.64-11.01-2.99-16.28-.17-23.6,12.62-44.14,28.8-58.7,51.73-.44,.7-.85,1.41-1.27,2.12-4.71,7.96-4.93,15.46,.02,23.88,13,22.11,27.52,42.97,48.51,58.12,6.38,4.6,7.68,8.62,6.59,15.95-3.81,25.55-6.77,51.23-10.11,76.85-.7,5.39,.4,10.33,3.36,14.9-1.27,.99-2.52,.55-3.66,.55-37.41,.03-74.83,.03-112.24,.02-10.84,0-14.41-4.49-13.02-15.23,2.49-19.22,4.84-38.46,6.87-57.74,2.31-21.97,13.68-37.11,33.6-46.07,12.8-5.76,26.27-9.67,39.63-13.85,.89-.28,1.76-.61,2.9-1.01Z"/>
  <path class="b" d="M138.59,280.52c-12.86-12.85-24.79-25.35-35.34-39.11-1.43-1.87-2.22-4.08-2.95-6.31-2.68-8.26-4.09-16.8-5.55-25.32-.55-3.23,.61-5.12,3.91-6.09,33.31-9.87,66.59-9.95,99.91-.03,3.71,1.11,4.37,3.17,4.16,6.74-.33,5.78-2.55,9.43-8.55,10.41-1.72,.28-3.31,1.32-5,1.87-21.83,7.04-36.88,21.56-46.68,41.99-1.15,2.4-1.9,4.84-2.37,7.41-.46,2.54-.93,5.07-1.55,8.46Z"/>
  <path class="b" d="M479.93,280.64c-.92-8.12-2.92-14.76-6.45-21.15-9.15-16.53-21.88-28.7-39.82-35.14-4.39-1.58-8.66-3.49-13.08-4.95-2.43-.8-3.4-2.16-3.79-4.62-1.58-9.89-1.64-9.84,7.79-12.39,31.84-8.61,63.53-8.14,95.15,1.22,3.74,1.11,4.89,3.12,4.18,6.65-1.38,6.86-2.7,13.74-4.19,20.58-1.25,5.73-3.94,10.71-7.76,15.23-9.93,11.75-20.27,23.1-32.01,34.57Z"/>
  <g>
    <path class="b" d="M485.08,377.75c-4.11-31.35-8.19-62.7-12.38-94.03-3.08-23.02-15.32-39.49-36.15-49.58-9.66-4.68-19.8-8.12-30-11.39-7.12-2.28-14.25-4.51-21.72-6.87,1.16-1.43,2.01-2.48,2.85-3.54,8.16-10.24,15.75-20.85,20.37-33.24,1.73-4.64,3.21-9.45,2.41-14.49-3.08-19.42-6.86-38.7-12.14-57.64-6.61-23.68-15.27-46.48-30.15-66.38-13.36-17.85-29.6-32.05-51.17-39.3-5.17-1.73-10.17-1.73-15.33,0-9.2,3.1-17.66,7.53-25.43,13.33-20.04,14.97-33.78,34.74-43.66,57.42-10.61,24.34-16.64,49.99-21.42,75.97-1.33,7.25-3.72,14.44-2.77,21.97,1.26,9.94,6.11,18.43,11.3,26.72,4.14,6.63,9.03,12.74,14.21,19.21-14.74,4.59-28.81,9.23-42.79,14.18-18.36,6.5-31.72,18.18-40.33,35.51-1.28,2.58-2.78,5.04-3.19,7.98-1.37,9.8-2.87,19.58-4.17,29.39-3.23,24.39-6.24,48.81-9.62,73.18-1.53,11.05,3.06,16.86,14.25,16.87,26.27,.02,52.55,0,78.82,0,81.29,0,162.59,.01,243.88,0,10.56,0,15.63-5.44,14.33-15.31Zm-156.04-129.99c-5.21,3.6-10.7,6.68-16.57,9.09-2.21,.91-4.12,.85-6.31-.03-9.55-3.84-18.02-9.43-25.7-16.14-22.01-19.23-39.05-42.29-52.28-68.29-2.29-4.51-2.45-8.7-.79-13.42,3.06-8.7,7.85-16.35,13.67-23.33,15.58-18.67,34.28-33.61,55.48-45.44,3.96-2.21,8.07-4.24,12.86-3.71,4.18-.46,7.88,1.08,11.38,3.01,23.61,13.01,44.3,29.53,60.66,51.15,4.33,5.72,7.63,12.01,10.03,18.82,1.57,4.45,1.26,8.42-.81,12.65-6.75,13.75-15.01,26.53-24.35,38.61-10.8,13.96-22.63,26.93-37.28,37.04Z"/>
    <path class="b" d="M367.75,151.92c-3.85-1.02-7.69-2.1-11.55-3.07-35.15-8.81-70.01-7.37-104.65,2.91-3.41,1.01-5.36,2.75-4.64,6.49,1.54,7.96,2.94,15.95,4.79,23.84,1.18,5.05,2.52,10.17,5.9,14.38,13.8,17.18,28.59,33.46,44.88,48.32,6.13,5.59,7.64,5.57,13.91-.15,16.19-14.76,30.89-30.94,44.58-48.03,1.11-1.38,2.12-2.92,2.78-4.55,4.53-11.18,6.11-23.07,8.24-34.85-.03-2.87-1.53-4.56-4.25-5.28Z"/>
  </g>
</svg>